<svg xmlns="http://www.w3.org/2000/svg" viewBox="0 0 44.868 21.572">
  <g transform="translate(-1163.654 -30)">
    <path d="M389.82,482.626l-1.795,3.1-9.934-.559.994-1.726,10.734-.815ZM397,472.75l.9,3.421-14.1-.928.994-1.725,12.2-.768Zm-9.344-4.193,8.25.006.623,2.339-9.867-.62.993-1.725Zm-.726,19.1-1.433,2.463-10.264.011.994-1.725,10.7-.749Zm18.021-6.646-2.485,4.307h2.366c1.1,0,3.062-.547,3.665-2.108a1.464,1.464,0,0,0-1.188-2.2l-2.359,0Zm2.37-4.12,2.063-.013a3.51,3.51,0,0,0,3.331-1.91c.483-1.182-.166-2.19-1.028-2.186l-2,0-2.37,4.113Zm-9.344-.717,2.085-3.617,7.054-.453.246-.439-6.525-.455,1.526-2.65,12.1,0c3.722,0,6.475,1.331,5.4,5.244-.322,1.185-1.835,4.169-6.271,5.419a3.344,3.344,0,0,1,2.882,3.844c-.718,4.777-6.9,7.051-10.342,7.051l-14.286.007-.7-2.764,7.483-.527.254-.438-8.116-.494-.874-3.277,11.548-.673.252-.435L380.948,480.2l.994-1.725,22.331-1.45.253-.434-6.547-.425" transform="translate(788.418 -438.556)" fill="#eeeae4" fill-rule="evenodd"/>
  </g>
</svg>
