<svg xmlns="http://www.w3.org/2000/svg" viewBox="0 0 210.5 31">
  <g transform="translate(-777.5 -227.5)">
    <g  transform="translate(848 234)">
      <g  transform="translate(0 1.98)">
        <g  transform="translate(0 0)">
          <path d="M547.338,103.924c0-1.029-.169-1.39-.877-1.446-.593-.084-.9-.111-.9-.473,0-.389.424-.418.734-.418.481,0,1.1.084,1.641.084s1.188-.084,1.613-.084c.452,0,.537.278.989,1.113,1.386,2.419,4.553,8.064,6.251,10.79.367.64.452.723.565.778.085,0,.113-.139.113-.362v-9.538c0-1.447-.283-1.836-1.047-1.891-.565-.084-.961-.167-.961-.473a.421.421,0,0,1,.453-.418c.4,0,.9.111,2.036.111.707,0,1.273-.111,1.81-.111.34,0,.509.111.509.389,0,.39-.368.417-.961.5-.763.083-.933.5-.933,1.5v14.933c0,.639,0,.694-.565.694-.481,0-.566-.139-1.131-1.168-.226-.361-.453-.751-.679-1.14-2.291-3.977-4.7-7.953-6.958-11.985-.254-.5-.452-.862-.623-.89-.112.056-.169.167-.169.556V115.27c0,2.252.2,2.948,1.047,3.059.65.139,1.244.056,1.244.529,0,.25-.2.333-.509.333-.4,0-.707-.111-2.065-.111-1.216,0-1.725.111-2.206.111-.226,0-.4-.111-.4-.333,0-.362.764-.418,1.132-.529.734-.167.847-.611.847-1.613Z" transform="translate(-545.359 -101.588)" fill="#eeeae4"/>
          <path d="M571.3,114.389c-.595,0-.764.17-.764.678,0,2.914,1.358,5.233,3.535,5.233a2.678,2.678,0,0,0,2.574-1.5c.254-.509.368-.849.566-.849.17,0,.283.085.283.4a3.328,3.328,0,0,1-.509,1.386,4.1,4.1,0,0,1-3.677,2.037c-3.366,0-5.4-2.772-5.4-6.478,0-4.639,2.659-6.986,5.488-6.986,2.489,0,4.158,1.81,4.158,4.582,0,1.386-.057,1.5-.792,1.5Zm-.679-1.5c0,.481.085.623,1.046.623a11.464,11.464,0,0,0,1.471-.085,4,4,0,0,0,1.81-.537c.284-.2.425-.509.425-1.159,0-1.471-.736-2.6-2.037-2.6-1.64,0-2.715,1.924-2.715,3.734Z" transform="translate(-552.152 -103.921)" fill="#eeeae4"/>
          <path d="M588.7,121.045c-.141.424-.226.764-.877.764-.537,0-.623-.368-.764-.735l-3.422-10.239c-.311-.9-.566-1.244-.99-1.329-.34-.057-.537-.17-.537-.425s.2-.368.509-.368c.678,0,1.358.085,2.037.085s1.357-.085,2.008-.085c.367,0,.565.085.565.34,0,.283-.311.34-.594.4a.72.72,0,0,0-.679.735,4.67,4.67,0,0,0,.34,1.33l1.98,5.657c.142.424.255.707.4.707.17,0,.311-.368.452-.82l1.189-3.62a3.415,3.415,0,0,0,.226-.933,9.258,9.258,0,0,0-.622-2.008,1.372,1.372,0,0,0-.934-.962c-.34-.085-.622-.141-.622-.424,0-.254.226-.4.593-.4.651,0,1.387.085,2.065.085.736,0,1.471-.085,2.009-.085.453,0,.594.113.594.4s-.311.34-.623.4c-.339.057-.706.2-.706.594a5.64,5.64,0,0,0,.254,1.075l1.838,5.855c.142.368.254.792.4.792.169,0,.311-.594.452-1.047l1.641-5.43a3.783,3.783,0,0,0,.2-1.047c0-.537-.4-.707-.791-.764-.368-.057-.792-.113-.792-.424,0-.254.17-.4.452-.4.481,0,.99.085,1.556.085.651,0,1.16-.085,1.555-.085.255,0,.425.085.425.4s-.255.368-.538.453c-.4.085-.707.4-.934,1.075l-3.224,10.408c-.113.424-.2.764-.764.764-.594,0-.707-.368-.821-.764l-2.149-6.789h-.057Z" transform="translate(-556.433 -104.043)" fill="#eeeae4"/>
        </g>
      </g>
      <g  transform="translate(49.439 0)">
        <path d="M518.325,144.057c0,3.254-2.518,5.4-6.053,5.4a7.693,7.693,0,0,1-3.79-.835c-.312-.306-.425-.806-.453-2.169a15.8,15.8,0,0,1,.113-2.42c.028-.306.142-.417.4-.417.368,0,.452.334.537.723.678,2.726,1.754,4.339,3.621,4.339a3.163,3.163,0,0,0,3.083-3.365c0-2.03-1.357-3.171-3.027-4.172-.4-.223-.82-.5-1.216-.751-1.7-1.085-3.31-2.336-3.31-4.756,0-2.671,2.631-4.423,5.29-4.423a8.561,8.561,0,0,1,3.422.723c.255.139.283.25.311.89.029.445.029,1.029.029,1.892,0,1.168-.029,1.391-.425,1.391s-.4-.473-.565-1.029c-.623-2.086-1.556-3.088-2.969-3.088a2.521,2.521,0,0,0-2.575,2.5c0,2.336,2.065,3.365,4.017,4.506,1.782,1.085,3.564,2.364,3.564,5.034Z" transform="translate(-508.029 -129.452)" fill="#eeeae4"/>
        <path d="M528.476,147.239c0,1.1.311,1.584.99,1.584a1.344,1.344,0,0,0,1.1-.707c.254-.34.424-.679.651-.679a.254.254,0,0,1,.283.284,3.126,3.126,0,0,1-2.97,2.63,2.436,2.436,0,0,1-1.867-.679,3.188,3.188,0,0,1-.623-2.262V138.7c0-.311-.141-.423-.339-.452a5.157,5.157,0,0,0-.679-.029c-.254,0-.481-.028-.481-.339,0-.2.17-.4.537-.736A9.357,9.357,0,0,0,527.655,134c.254-.481.34-.651.538-.651s.282.113.282.594v2.686c0,.425.142.594.565.594h1.528c.481,0,.594.114.594.509,0,.453-.113.595-.651.595-.481,0-.99-.029-1.471-.029-.452,0-.565.113-.565.623Z" transform="translate(-513.005 -130.407)" fill="#eeeae4"/>
        <path d="M542.246,141.071c0-1.33-.311-1.867-1.188-1.867-1.358,0-1.98,1.018-2.432,2.4a2.6,2.6,0,0,1-.962,1.358,1.955,1.955,0,0,1-1.131.4c-.537,0-.736-.226-.736-.736,0-1.64,2.432-4.214,5.94-4.214a3.6,3.6,0,0,1,2.347.566c.481.368.595.9.595,1.782v8.09c0,.706.226,1.216.792,1.216a.924.924,0,0,0,.848-.509c.114-.254.227-.537.4-.537s.226.142.226.481a2.81,2.81,0,0,1-2.6,2.291c-1.188,0-1.527-.962-1.753-1.527-.084-.226-.17-.4-.312-.4-.226,0-.678.537-1.386,1.047a4.25,4.25,0,0,1-2.659.961,2.32,2.32,0,0,1-2.376-2.545c0-1.5,1.047-2.517,3.338-3.932.9-.594,1.584-.99,2.093-1.33.764-.453.962-.707.962-1.358Zm-3.847,7.75a1.389,1.389,0,0,0,1.415,1.584,2.6,2.6,0,0,0,1.754-.9,1.973,1.973,0,0,0,.678-1.613V145c0-.34-.057-.424-.2-.424s-.283.057-.651.283a10.858,10.858,0,0,0-1.64,1.329,3.6,3.6,0,0,0-1.358,2.6Z" transform="translate(-516.395 -131.932)" fill="#eeeae4"/>
        <path d="M553.937,141.891c0-.961-.113-1.075-.82-1.16-.509-.057-.678-.085-.678-.311,0-.283.283-.34.876-.537a8.325,8.325,0,0,0,2.235-1.16c.254-.2.4-.311.537-.311.169,0,.226.226.226.481v1.131c0,.4.029.481.113.481.254,0,.706-.481,1.329-.961a4.392,4.392,0,0,1,2.575-.99,3.412,3.412,0,0,1,2.517.99,3.8,3.8,0,0,1,.933,2.715v7.213c0,.99.282,1.3.933,1.386.509.057.736.141.736.424,0,.254-.2.34-.51.34-.339,0-1.075-.113-2.4-.113-1.273,0-1.726.113-2.178.113-.312,0-.453-.085-.453-.367,0-.2.2-.312.481-.368.707-.141.962-.367.962-1.16v-7.184a2.821,2.821,0,0,0-.481-1.725,2.081,2.081,0,0,0-1.7-.792,2.985,2.985,0,0,0-1.98.764,2.3,2.3,0,0,0-.791,1.725v7.212c0,.736.141,1.019.82,1.16.65.113.82.113.82.368,0,.282-.2.367-.424.367-.34,0-.82-.113-2.489-.113-1.442,0-1.781.113-2.234.113-.339,0-.537-.113-.537-.367s.226-.4.509-.425c.934-.085,1.075-.452,1.075-1.583Z" transform="translate(-521.384 -131.932)" fill="#eeeae4"/>
        <path d="M582.475,146.077c0,.752.057,1,.283,1,.623,0,.82-1.17,1.131-1.17.2,0,.254.195.254.557,0,.613-.057.919-.452,1.115-.226.139-.792.306-1.188.473a8.633,8.633,0,0,1-1.754.557c-.254,0-.34-.223-.4-.557-.085-.641-.113-.947-.283-.947s-.452.362-.933.751a3.52,3.52,0,0,1-2.207.78c-2.941,0-4.581-2.7-4.581-6.462,0-3.733,2.263-6.8,5.063-6.8a4.109,4.109,0,0,1,1.951.5,2.555,2.555,0,0,0,.509.278c.141,0,.169-.111.169-.25v-4.373c0-.668-.2-.808-.877-.919-.48-.083-.65-.111-.65-.362s.141-.306.593-.418c1.075-.334,1.867-.613,2.461-.864a2.531,2.531,0,0,1,.736-.279c.141,0,.169.139.169.5Zm-7.5-4.345c0,3.537.99,5.459,2.941,5.459a2.417,2.417,0,0,0,1.556-.5,1.483,1.483,0,0,0,.565-1.253v-6.574a2.855,2.855,0,0,0-.537-1.839,2.028,2.028,0,0,0-1.585-.724c-1.3,0-2.941,1.421-2.941,5.4Z" transform="translate(-527.409 -128.696)" fill="#eeeae4"/>
        <path d="M597.3,141.071c0-1.33-.311-1.867-1.188-1.867-1.358,0-1.98,1.018-2.433,2.4a2.592,2.592,0,0,1-.961,1.358,1.956,1.956,0,0,1-1.132.4c-.537,0-.735-.226-.735-.736,0-1.64,2.432-4.214,5.94-4.214a3.6,3.6,0,0,1,2.347.566c.481.368.595.9.595,1.782v8.09c0,.706.226,1.216.791,1.216a.924.924,0,0,0,.849-.509c.113-.254.226-.537.4-.537s.226.142.226.481a2.81,2.81,0,0,1-2.6,2.291c-1.188,0-1.527-.962-1.754-1.527-.085-.226-.17-.4-.311-.4-.226,0-.679.537-1.386,1.047a4.25,4.25,0,0,1-2.659.961,2.319,2.319,0,0,1-2.376-2.545c0-1.5,1.047-2.517,3.338-3.932.9-.594,1.584-.99,2.093-1.33.764-.453.962-.707.962-1.358Zm-3.847,7.75a1.389,1.389,0,0,0,1.415,1.584,2.6,2.6,0,0,0,1.753-.9,1.971,1.971,0,0,0,.679-1.613V145c0-.34-.057-.424-.2-.424s-.283.057-.651.283a10.855,10.855,0,0,0-1.64,1.329,3.6,3.6,0,0,0-1.358,2.6Z" transform="translate(-532.982 -131.932)" fill="#eeeae4"/>
        <path d="M609.259,142.145c0-1.075-.254-1.3-1.018-1.329-.311-.028-.452-.057-.452-.283,0-.312.2-.4.65-.509a6.4,6.4,0,0,0,2.093-1.075c.34-.34.509-.537.736-.537.169,0,.254.141.254.453.028.368.028.848.028,1.357,0,.4,0,.679.114.679.226,0,.424-.623.848-1.216a2.513,2.513,0,0,1,2.037-1.244,1.8,1.8,0,0,1,1.754,2.037c0,1.018-.452,1.782-1.358,1.782-.735,0-.989-.481-1.1-1.018-.113-.452-.2-.9-.538-.9-.537,0-.9.565-1.188,1.188a4.594,4.594,0,0,0-.4,1.924v5.571c0,1.273.085,1.7,1.075,1.81.678.113,1.018.17,1.018.453s-.2.34-.679.34c-.4,0-.9-.113-2.631-.113-1.413,0-1.895.113-2.29.113-.34,0-.566-.085-.566-.34,0-.311.255-.368.707-.453.792-.085.9-.311.9-1.555Z" transform="translate(-538.044 -131.932)" fill="#eeeae4"/>
        <path d="M630.887,146.077c0,.752.057,1,.283,1,.623,0,.82-1.17,1.131-1.17.2,0,.255.195.255.557,0,.613-.057.919-.453,1.115-.226.139-.792.306-1.188.473a8.631,8.631,0,0,1-1.754.557c-.254,0-.34-.223-.4-.557-.085-.641-.113-.947-.283-.947s-.452.362-.933.751a3.524,3.524,0,0,1-2.207.78c-2.941,0-4.581-2.7-4.581-6.462,0-3.733,2.262-6.8,5.063-6.8a4.107,4.107,0,0,1,1.952.5,2.551,2.551,0,0,0,.509.278c.141,0,.169-.111.169-.25v-4.373c0-.668-.2-.808-.876-.919-.481-.083-.651-.111-.651-.362s.141-.306.594-.418c1.075-.334,1.866-.613,2.461-.864a2.535,2.535,0,0,1,.736-.279c.141,0,.169.139.169.5Zm-7.5-4.345c0,3.537.99,5.459,2.942,5.459a2.417,2.417,0,0,0,1.556-.5,1.483,1.483,0,0,0,.565-1.253v-6.574a2.855,2.855,0,0,0-.537-1.839,2.026,2.026,0,0,0-1.584-.724c-1.3,0-2.942,1.421-2.942,5.4Z" transform="translate(-541.996 -128.696)" fill="#eeeae4"/>
      </g>
    </g>
    <g  transform="translate(778 227.575)">
      <g  transform="translate(0 0)">
        <g  transform="translate(7.09 6.231)">
          <g >
            <path d="M455.729,491.617l1.89-2.731a5.291,5.291,0,0,0,3.572,1.4c2.007,0,3.081-1.517,3.314-3.712a4.966,4.966,0,0,1-3.314,1.12c-3.548,0-5.836-1.96-5.836-5.275v-.047c0-3.291,2.544-5.718,6.232-5.718a5.914,5.914,0,0,1,4.716,1.774c1.167,1.166,1.938,2.94,1.938,6.161v.047c0,5.3-2.5,8.917-7.143,8.917A7.888,7.888,0,0,1,455.729,491.617Zm8.845-9.337v-.047c0-1.447-1.072-2.5-2.87-2.5-1.774,0-2.778,1.027-2.778,2.474v.047c0,1.447,1.074,2.452,2.848,2.452S464.574,483.68,464.574,482.28Z" transform="translate(-455.354 -476.655)" fill="#eeeae4"/>
            <path d="M473.884,491.617l1.891-2.731a5.287,5.287,0,0,0,3.571,1.4c2.007,0,3.081-1.517,3.315-3.712a4.97,4.97,0,0,1-3.315,1.12c-3.548,0-5.836-1.96-5.836-5.275v-.047c0-3.291,2.545-5.718,6.233-5.718a5.912,5.912,0,0,1,4.715,1.774c1.167,1.166,1.937,2.94,1.937,6.161v.047c0,5.3-2.5,8.917-7.141,8.917A7.89,7.89,0,0,1,473.884,491.617Zm8.846-9.337v-.047c0-1.447-1.074-2.5-2.871-2.5-1.774,0-2.778,1.027-2.778,2.474v.047c0,1.447,1.074,2.452,2.847,2.452S482.73,483.68,482.73,482.28Z" transform="translate(-458.108 -476.655)" fill="#eeeae4"/>
            <path d="M493.547,491.8c-1.19-1.19-1.937-2.941-1.937-6.185v-.047c0-5.042,2.288-8.916,7.166-8.916a7.564,7.564,0,0,1,5.112,1.8L502,481.23a5.034,5.034,0,0,0-3.338-1.307c-2.03,0-3.057,1.634-3.291,3.781a5.657,5.657,0,0,1,3.385-1.05c3.244,0,5.742,1.8,5.742,5.205v.047c0,3.338-2.685,5.649-6.232,5.649A6.2,6.2,0,0,1,493.547,491.8Zm7.375-3.734v-.047c0-1.377-1.073-2.381-2.846-2.381s-2.8.981-2.8,2.358v.046c0,1.377,1.074,2.428,2.848,2.428S500.923,489.469,500.923,488.069Z" transform="translate(-460.853 -476.655)" fill="#eeeae4"/>
          </g>
        </g>
        <rect width="58" height="30" transform="translate(0 0.425)" fill="none" stroke="#eeeae4" stroke-miterlimit="10" stroke-width="1"/>
      </g>
    </g>
  </g>
</svg>
