<svg class="home_section-about_title_text" xmlns="http://www.w3.org/2000/svg" viewBox="0 0 299 148.18" aria-label="New Standard">
    <title>New Standard</title>
    <g transform="translate(-30 -7960.38)">
        <g transform="translate(30 7960.38)">
            <path d="M551.894,109.434c0-3.456-.558-4.669-2.9-4.856-1.959-.281-2.985-.374-2.985-1.587,0-1.308,1.4-1.4,2.424-1.4,1.589,0,3.643.281,5.419.281s3.922-.281,5.324-.281c1.493,0,1.772.934,3.267,3.737,4.577,8.122,15.034,27.08,20.639,36.234,1.211,2.148,1.493,2.427,1.866,2.614.281,0,.374-.466.374-1.216V110.928c0-4.858-.934-6.164-3.456-6.351-1.866-.281-3.174-.561-3.174-1.587a1.4,1.4,0,0,1,1.495-1.4c1.306,0,2.988.374,6.722.374,2.335,0,4.2-.374,5.977-.374,1.121,0,1.68.374,1.68,1.308,0,1.308-1.214,1.4-3.174,1.682-2.519.279-3.082,1.679-3.082,5.043v50.149c0,2.145,0,2.332-1.866,2.332-1.589,0-1.869-.466-3.735-3.922-.747-1.213-1.495-2.521-2.242-3.829C572.907,141,564.969,127.644,557.5,114.1c-.84-1.682-1.492-2.9-2.055-2.99-.371.187-.558.561-.558,1.869v34.552c0,7.564.653,9.9,3.456,10.272,2.148.468,4.109.187,4.109,1.776,0,.84-.655,1.119-1.682,1.119-1.306,0-2.335-.374-6.817-.374-4.014,0-5.7.374-7.283.374-.748,0-1.308-.374-1.308-1.119,0-1.216,2.521-1.4,3.737-1.776,2.425-.561,2.8-2.053,2.8-5.416Z" transform="translate(-545.359 -101.588)" fill="#28282a"></path>
            <path d="M579.114,128.387c-1.963,0-2.524.561-2.524,2.24,0,9.62,4.482,17.278,11.673,17.278,4.39,0,7.006-2.055,8.5-4.951.84-1.682,1.213-2.8,1.869-2.8.561,0,.934.281.934,1.308a10.987,10.987,0,0,1-1.682,4.577,13.525,13.525,0,0,1-12.139,6.724c-11.114,0-17.839-9.154-17.839-21.387,0-15.315,8.78-23.066,18.118-23.066,8.217,0,13.728,5.977,13.728,15.128,0,4.577-.187,4.951-2.616,4.951Zm-2.242-4.951c0,1.589.279,2.055,3.453,2.055a37.845,37.845,0,0,0,4.858-.281c2.893-.371,5.135-1.027,5.975-1.774.937-.653,1.4-1.679,1.4-3.827,0-4.856-2.429-8.593-6.725-8.593-5.416,0-8.964,6.351-8.964,12.328Z" transform="translate(-515.895 -92.806)" fill="#28282a"></path>
            <path d="M603.871,149.429c-.466,1.4-.745,2.521-2.9,2.521-1.774,0-2.055-1.213-2.521-2.427l-11.3-33.807c-1.027-2.987-1.869-4.109-3.269-4.388-1.121-.187-1.774-.561-1.774-1.4s.653-1.213,1.682-1.213c2.24,0,4.482.279,6.724.279s4.48-.279,6.63-.279c1.213,0,1.866.279,1.866,1.121,0,.934-1.026,1.121-1.961,1.308a2.377,2.377,0,0,0-2.242,2.427,15.412,15.412,0,0,0,1.121,4.39l6.538,18.676c.468,1.4.842,2.335,1.308,2.335.56,0,1.026-1.213,1.492-2.708L609.2,124.31a11.271,11.271,0,0,0,.747-3.082c0-1.029-.747-2.99-2.055-6.63-.748-1.961-1.866-2.9-3.082-3.177-1.121-.279-2.053-.466-2.053-1.4,0-.84.747-1.308,1.959-1.308,2.15,0,4.579.279,6.817.279,2.429,0,4.858-.279,6.632-.279,1.495,0,1.961.374,1.961,1.308s-1.027,1.121-2.055,1.308c-1.119.187-2.332.653-2.332,1.961a18.607,18.607,0,0,0,.84,3.548l6.069,19.331c.468,1.213.84,2.614,1.308,2.614.558,0,1.026-1.961,1.492-3.456l5.417-17.929a12.5,12.5,0,0,0,.653-3.456c0-1.774-1.306-2.335-2.611-2.521-1.216-.187-2.616-.374-2.616-1.4,0-.84.561-1.308,1.493-1.308,1.589,0,3.269.279,5.137.279,2.148,0,3.829-.279,5.135-.279.842,0,1.4.279,1.4,1.308s-.842,1.213-1.776,1.495c-1.306.279-2.334,1.306-3.082,3.548L623.95,149.429c-.374,1.4-.653,2.521-2.522,2.521-1.961,0-2.334-1.213-2.71-2.521l-7.1-22.413h-.187Z" transform="translate(-497.327 -92.277)" fill="#28282a"></path>
        </g>
        <g transform="translate(30 8041.51)">
            <path d="M542.023,174.351c0,10.925-8.314,18.116-19.984,18.116-4.577,0-10.088-1.027-12.515-2.8-1.029-1.027-1.4-2.706-1.495-7.283a53.926,53.926,0,0,1,.374-8.125c.092-1.027.468-1.4,1.308-1.4,1.213,0,1.493,1.121,1.774,2.427,2.24,9.154,5.79,14.568,11.954,14.568,5.882,0,10.178-4.948,10.178-11.3,0-6.817-4.482-10.646-9.993-14.007-1.305-.747-2.708-1.682-4.014-2.521-5.6-3.643-10.928-7.843-10.928-15.968,0-8.967,8.685-14.849,17.465-14.849,4.3,0,9.338,1.308,11.3,2.429.842.466.934.84,1.027,2.987.095,1.495.095,3.456.095,6.351,0,3.922-.095,4.669-1.4,4.669s-1.306-1.587-1.866-3.456c-2.055-7-5.137-10.367-9.8-10.367a8.389,8.389,0,0,0-8.5,8.406c0,7.843,6.817,11.3,13.262,15.128,5.882,3.642,11.767,7.938,11.767,16.9Z" transform="translate(-508.029 -125.416)" fill="#28282a"></path>
            <path d="M537.525,179.2c0,3.643,1.027,5.23,3.269,5.23a4.439,4.439,0,0,0,3.643-2.335c.84-1.121,1.4-2.242,2.148-2.242a.839.839,0,0,1,.934.937c0,1.4-2.521,8.683-9.806,8.683q-4.062,0-6.164-2.242c-1.493-1.679-2.055-3.922-2.055-7.47V151c0-1.027-.466-1.4-1.119-1.493a17.036,17.036,0,0,0-2.242-.095c-.84,0-1.587-.092-1.587-1.119,0-.655.56-1.308,1.774-2.429,2.9-2.24,5.324-4.764,8.5-10.365.84-1.587,1.121-2.148,1.776-2.148s.932.374.932,1.961v8.87c0,1.4.468,1.961,1.866,1.961h5.045c1.587,0,1.961.376,1.961,1.682,0,1.495-.374,1.963-2.148,1.963-1.59,0-3.269-.095-4.858-.095-1.493,0-1.866.374-1.866,2.055Z" transform="translate(-486.446 -122.611)" fill="#28282a"></path>
            <path d="M557.089,147.19c0-4.39-1.027-6.164-3.922-6.164-4.482,0-6.538,3.361-8.03,7.938a8.574,8.574,0,0,1-3.177,4.482,6.456,6.456,0,0,1-3.735,1.308c-1.774,0-2.429-.747-2.429-2.429,0-5.414,8.03-13.913,19.613-13.913,3.453,0,6.162.466,7.749,1.869,1.589,1.213,1.963,2.987,1.963,5.882v26.709c0,2.332.745,4.014,2.614,4.014a3.052,3.052,0,0,0,2.8-1.682c.376-.84.75-1.774,1.308-1.774s.747.468.747,1.589c0,2.053-3.174,7.564-8.593,7.564-3.921,0-5.04-3.177-5.788-5.043-.279-.747-.56-1.308-1.029-1.308-.745,0-2.24,1.774-4.575,3.456a14.032,14.032,0,0,1-8.78,3.174c-4.388,0-7.843-2.987-7.843-8.4,0-4.951,3.456-8.312,11.02-12.981,2.987-1.961,5.23-3.269,6.909-4.39,2.524-1.495,3.176-2.335,3.176-4.482Zm-12.7,25.588c0,3.456,1.963,5.23,4.672,5.23,2.055,0,4.014-1.213,5.79-2.987a6.512,6.512,0,0,0,2.24-5.324V160.17c0-1.121-.187-1.4-.653-1.4s-.934.187-2.15.934a35.851,35.851,0,0,0-5.414,4.388c-2.616,2.429-4.485,5.23-4.485,8.593Z" transform="translate(-471.74 -115.999)" fill="#28282a"></path>
            <path d="M557.581,149.9c0-3.174-.374-3.548-2.708-3.829-1.679-.187-2.24-.279-2.24-1.027,0-.934.934-1.121,2.893-1.774a27.49,27.49,0,0,0,7.38-3.829c.84-.653,1.306-1.027,1.774-1.027.558,0,.747.747.747,1.587v3.735c0,1.308.095,1.587.374,1.587.84,0,2.332-1.587,4.388-3.174a14.5,14.5,0,0,1,8.5-3.269A11.266,11.266,0,0,1,587,142.147c1.961,2.055,3.082,5.043,3.082,8.964v23.814c0,3.269.932,4.3,3.082,4.577,1.679.187,2.429.466,2.429,1.4,0,.84-.657,1.121-1.684,1.121-1.119,0-3.548-.374-7.936-.374-4.2,0-5.7.374-7.19.374-1.029,0-1.495-.281-1.495-1.213,0-.655.653-1.029,1.587-1.216,2.335-.466,3.177-1.213,3.177-3.829V152.045a9.317,9.317,0,0,0-1.589-5.7,6.87,6.87,0,0,0-5.6-2.616,9.855,9.855,0,0,0-6.538,2.524,7.6,7.6,0,0,0-2.611,5.7v23.811c0,2.429.466,3.363,2.706,3.829,2.148.374,2.708.374,2.708,1.216,0,.932-.653,1.213-1.4,1.213-1.121,0-2.708-.374-8.219-.374-4.761,0-5.88.374-7.377.374-1.119,0-1.772-.374-1.772-1.213s.745-1.308,1.679-1.4c3.082-.279,3.548-1.493,3.548-5.227Z" transform="translate(-450.103 -115.999)" fill="#28282a"></path>
            <path d="M605.781,186.969c0,2.521.187,3.361.934,3.361,2.055,0,2.708-3.922,3.735-3.922.653,0,.84.653.84,1.866,0,2.055-.187,3.082-1.492,3.737-.748.466-2.616,1.027-3.922,1.587-2.242.84-4.764,1.869-5.79,1.869-.84,0-1.121-.747-1.308-1.869-.279-2.148-.374-3.174-.934-3.174s-1.492,1.213-3.082,2.519a11.516,11.516,0,0,1-7.285,2.616c-9.712,0-15.126-9.059-15.126-21.664,0-12.515,7.47-22.787,16.716-22.787a13.405,13.405,0,0,1,6.443,1.682,8.4,8.4,0,0,0,1.682.932c.466,0,.558-.374.558-.84V138.221c0-2.24-.653-2.708-2.9-3.082-1.585-.279-2.146-.371-2.146-1.213s.466-1.027,1.958-1.4c3.55-1.121,6.164-2.055,8.127-2.9a8.27,8.27,0,0,1,2.429-.934c.466,0,.558.466.558,1.682ZM581.033,172.4c0,11.86,3.269,18.3,9.712,18.3a7.9,7.9,0,0,0,5.138-1.682,5,5,0,0,0,1.866-4.2v-22.04a9.678,9.678,0,0,0-1.772-6.164,6.652,6.652,0,0,0-5.232-2.427c-4.3,0-9.712,4.764-9.712,18.116Z" transform="translate(-423.971 -128.696)" fill="#28282a"></path>
            <path d="M612.14,147.19c0-4.39-1.026-6.164-3.922-6.164-4.482,0-6.537,3.361-8.032,7.938a8.559,8.559,0,0,1-3.174,4.482,6.458,6.458,0,0,1-3.737,1.308c-1.772,0-2.427-.747-2.427-2.429,0-5.414,8.03-13.913,19.613-13.913,3.453,0,6.162.466,7.749,1.869,1.587,1.213,1.963,2.987,1.963,5.882v26.709c0,2.332.745,4.014,2.611,4.014a3.052,3.052,0,0,0,2.8-1.682c.374-.84.748-1.774,1.308-1.774s.748.468.748,1.589c0,2.053-3.174,7.564-8.593,7.564-3.922,0-5.041-3.177-5.79-5.043-.279-.747-.561-1.308-1.027-1.308-.745,0-2.242,1.774-4.574,3.456a14.033,14.033,0,0,1-8.78,3.174c-4.388,0-7.843-2.987-7.843-8.4,0-4.951,3.456-8.312,11.02-12.981,2.987-1.961,5.23-3.269,6.909-4.39,2.524-1.495,3.176-2.335,3.176-4.482Zm-12.7,25.588c0,3.456,1.963,5.23,4.671,5.23,2.053,0,4.014-1.213,5.788-2.987a6.508,6.508,0,0,0,2.242-5.324V160.17c0-1.121-.187-1.4-.653-1.4s-.934.187-2.15.934a35.852,35.852,0,0,0-5.414,4.388c-2.616,2.429-4.484,5.23-4.484,8.593Z" transform="translate(-399.797 -115.999)" fill="#28282a"></path>
            <path d="M612.969,150.737c0-3.548-.84-4.3-3.361-4.388-1.027-.092-1.493-.187-1.493-.934,0-1.029.653-1.308,2.146-1.682a21.12,21.12,0,0,0,6.911-3.548c1.121-1.121,1.682-1.774,2.429-1.774.558,0,.84.466.84,1.495.092,1.213.092,2.8.092,4.48,0,1.308,0,2.242.376,2.242.745,0,1.4-2.055,2.8-4.016s3.456-4.109,6.724-4.109c3.548,0,5.79,2.708,5.79,6.724,0,3.361-1.492,5.882-4.482,5.882-2.427,0-3.266-1.587-3.64-3.361-.374-1.493-.655-2.987-1.776-2.987-1.772,0-2.987,1.866-3.922,3.922a15.167,15.167,0,0,0-1.306,6.351V173.43c0,4.2.279,5.6,3.548,5.977,2.24.374,3.361.561,3.361,1.495s-.655,1.121-2.242,1.121c-1.305,0-2.987-.374-8.685-.374-4.667,0-6.256.374-7.562.374-1.121,0-1.869-.281-1.869-1.121,0-1.027.842-1.213,2.335-1.495,2.616-.279,2.987-1.027,2.987-5.135Z" transform="translate(-377.843 -115.999)" fill="#28282a"></path>
            <path d="M654.193,186.969c0,2.521.187,3.361.934,3.361,2.055,0,2.708-3.922,3.735-3.922.655,0,.842.653.842,1.866,0,2.055-.187,3.082-1.495,3.737-.747.466-2.616,1.027-3.922,1.587-2.242.84-4.764,1.869-5.79,1.869-.84,0-1.121-.747-1.308-1.869-.279-2.148-.374-3.174-.934-3.174s-1.492,1.213-3.08,2.519a11.528,11.528,0,0,1-7.287,2.616c-9.712,0-15.126-9.059-15.126-21.664,0-12.515,7.469-22.787,16.715-22.787a13.4,13.4,0,0,1,6.443,1.682,8.393,8.393,0,0,0,1.682.932c.466,0,.558-.374.558-.84V138.221c0-2.24-.653-2.708-2.893-3.082-1.587-.279-2.148-.371-2.148-1.213s.466-1.027,1.961-1.4c3.55-1.121,6.162-2.055,8.125-2.9a8.292,8.292,0,0,1,2.429-.934c.466,0,.558.466.558,1.682ZM629.445,172.4c0,11.86,3.269,18.3,9.712,18.3a7.9,7.9,0,0,0,5.137-1.682,5,5,0,0,0,1.866-4.2v-22.04a9.677,9.677,0,0,0-1.772-6.164,6.649,6.649,0,0,0-5.232-2.427c-4.3,0-9.712,4.764-9.712,18.116Z" transform="translate(-360.704 -128.696)" fill="#28282a"></path>
        </g>
    </g>
</svg>