<svg class="home_header_title_text" xmlns="http://www.w3.org/2000/svg" viewBox="0 0 3262.276 480.721" aria-label="New Standard">
                            <title>New Standard</title>
                            <g transform="translate(-910.055 -224.174)">
                                <g transform="translate(910.055 224.174)">
                                    <g transform="translate(0 46.871)">
                                        <path d="M592.214,157.837c0-24.775-4-33.475-20.757-34.814-14.042-2.018-21.4-2.679-21.4-11.379,0-9.378,10.039-10.056,17.382-10.056,11.4,0,26.116,2.018,38.851,2.018,12.718,0,28.116-2.018,38.172-2.018,10.7,0,12.7,6.7,23.419,26.793,32.812,58.233,107.783,194.151,147.973,259.777,8.683,15.4,10.7,17.4,13.38,18.739,2.018,0,2.68-3.341,2.68-8.716V168.554c0-34.831-6.7-44.192-24.775-45.532C793.757,121,784.379,119,784.379,111.644c0-6.037,4.681-10.056,10.717-10.056,9.362,0,21.419,2.679,48.2,2.679,16.738,0,30.134-2.679,42.852-2.679,8.038,0,12.041,2.679,12.041,9.378,0,9.378-8.7,10.039-22.758,12.057-18.06,2-22.1,12.04-22.1,36.154v359.54c0,15.381,0,16.721-13.378,16.721-11.4,0-13.4-3.341-26.777-28.116-5.358-8.7-10.718-18.077-16.076-27.455C742.868,384.122,685.956,288.4,632.386,191.312c-6.019-12.057-10.7-20.756-14.736-21.434-2.662,1.34-4,4.019-4,13.4v247.72c0,54.231,4.681,70.968,24.777,73.648,15.4,3.358,29.456,1.34,29.456,12.735,0,6.02-4.7,8.021-12.057,8.021-9.362,0-16.737-2.679-48.873-2.679-28.778,0-40.834,2.679-52.213,2.679-5.36,0-9.378-2.679-9.378-8.021,0-8.716,18.077-10.056,26.793-12.735,17.383-4.019,20.062-14.72,20.062-38.833Z" transform="translate(-545.359 -101.588)" fill="#28282a"></path>
                                        <path d="M648.267,252.263c-14.074,0-18.094,4.019-18.094,16.059,0,68.967,32.135,123.876,83.687,123.876,31.473,0,50.229-14.736,60.929-35.492,6.02-12.057,8.7-20.095,13.4-20.095,4.019,0,6.7,2.018,6.7,9.378,0,8.716-6.02,22.774-12.056,32.813-16.06,28.794-47.55,48.211-87.028,48.211-79.685,0-127.9-65.626-127.9-153.333,0-109.8,62.946-165.373,129.9-165.373,58.912,0,98.424,42.852,98.424,108.462,0,32.813-1.34,35.493-18.756,35.493ZM632.191,216.77c0,11.4,2,14.736,24.759,14.736a271.324,271.324,0,0,0,34.831-2.018c20.739-2.663,36.815-7.36,42.835-12.718,6.715-4.68,10.056-12.04,10.056-27.438,0-34.814-17.416-61.607-48.212-61.607-38.832,0-64.27,45.532-64.27,88.384Z" transform="translate(-195.018 2.834)" fill="#28282a"></path>
                                        <path d="M738.108,400.625c-3.34,10.039-5.342,18.077-20.756,18.077-12.718,0-14.735-8.7-18.076-17.4L618.269,158.925c-7.361-21.418-13.4-29.456-23.436-31.457-8.039-1.34-12.72-4.019-12.72-10.056,0-6.02,4.681-8.7,12.058-8.7,16.059,0,32.135,2,48.211,2,16.06,0,32.119-2,47.533-2,8.7,0,13.38,2,13.38,8.038,0,6.7-7.359,8.038-14.057,9.378-7.36,1.34-16.077,5.342-16.077,17.4,0,7.376,2.68,15.4,8.039,31.474L728.07,308.9c3.357,10.039,6.036,16.738,9.378,16.738,4.019,0,7.359-8.7,10.7-19.417l28.134-85.688c2.678-8.038,5.358-16.076,5.358-22.1,0-7.377-5.358-21.435-14.736-47.533-5.359-14.058-13.38-20.773-22.1-22.774-8.038-2-14.72-3.341-14.72-10.039,0-6.02,5.358-9.378,14.042-9.378,15.413,0,32.829,2,48.872,2,17.415,0,34.831-2,47.55-2,10.717,0,14.057,2.679,14.057,9.378s-7.36,8.038-14.736,9.378c-8.021,1.34-16.721,4.68-16.721,14.058,0,5.359,3.34,16.059,6.02,25.437l43.514,138.6c3.357,8.7,6.02,18.739,9.378,18.739,4,0,7.359-14.058,10.7-24.775L931.6,170.982a89.617,89.617,0,0,0,4.68-24.775c0-12.718-9.361-16.737-18.722-18.077-8.716-1.34-18.755-2.679-18.755-10.039,0-6.02,4.02-9.378,10.7-9.378,11.4,0,23.436,2,36.832,2,15.4,0,27.455-2,36.816-2,6.036,0,10.055,2,10.055,9.378,0,7.36-6.036,8.7-12.735,10.717-9.36,2-16.737,9.361-22.1,25.437l-76.31,246.38c-2.68,10.039-4.681,18.077-18.078,18.077-14.057,0-16.737-8.7-19.433-18.077L793.68,239.933h-1.34Z" transform="translate(25.759 9.127)" fill="#28282a"></path>
                                    </g>
                                    <g transform="translate(1118.599 0)">
                                        <path d="M751.747,440.534c0,78.329-59.606,129.88-143.277,129.88-32.813,0-72.325-7.36-89.724-20.095-7.377-7.36-10.057-19.4-10.718-52.214,0-19.417,0-44.192,2.679-58.25.662-7.36,3.358-10.039,9.378-10.039,8.7,0,10.7,8.038,12.719,17.4,16.058,65.627,41.511,104.443,85.7,104.443,42.174,0,72.97-35.476,72.97-81.008,0-48.873-32.135-76.327-71.647-100.424-9.36-5.359-19.417-12.057-28.777-18.077-40.173-26.115-78.345-56.233-78.345-114.482,0-64.287,62.269-106.461,125.215-106.461,30.8,0,66.951,9.378,81.008,17.416,6.037,3.341,6.7,6.02,7.36,21.418.679,10.717.679,24.775.679,45.532,0,28.116-.679,33.475-10.056,33.475-9.361,0-9.361-11.379-13.38-24.775-14.736-50.212-36.832-74.326-70.29-74.326-32.152,0-60.946,24.775-60.946,60.268,0,56.232,48.873,81.008,95.083,108.462,42.174,26.115,84.365,56.91,84.365,121.181Z" transform="translate(-508.029 -89.693)" fill="#28282a"></path>
                                        <path d="M617.608,462.08c0,26.115,7.36,37.494,23.436,37.494,12.718,0,20.756-8.7,26.115-16.737,6.02-8.038,10.04-16.076,15.4-16.076,4.018,0,6.7,2.017,6.7,6.715,0,10.022-18.078,62.253-70.307,62.253q-29.124,0-44.191-16.076c-10.7-12.04-14.737-28.116-14.737-53.553V259.875c0-7.36-3.341-10.023-8.022-10.7a122.128,122.128,0,0,0-16.076-.678c-6.021,0-11.379-.661-11.379-8.022,0-4.7,4.019-9.378,12.718-17.415,20.756-16.059,38.171-34.153,60.93-74.309,6.02-11.379,8.037-15.4,12.736-15.4,4.679,0,6.681,2.679,6.681,14.058V211c0,10.056,3.358,14.058,13.38,14.058h36.17c11.379,0,14.059,2.7,14.059,12.057,0,10.717-2.68,14.075-15.4,14.075-11.4,0-23.436-.678-34.831-.678-10.7,0-13.38,2.679-13.38,14.736Z" transform="translate(-251.403 -56.347)" fill="#28282a"></path>
                                        <path d="M688.45,201.342c0-31.473-7.36-44.192-28.115-44.192-32.136,0-46.872,24.1-57.572,56.91-4.7,14.058-12.735,25.437-22.774,32.135-7.377,5.359-16.738,9.378-26.777,9.378-12.718,0-17.415-5.359-17.415-17.416,0-38.817,57.571-99.746,140.614-99.746,24.76,0,44.175,3.341,55.555,13.4,11.395,8.7,14.073,21.418,14.073,42.174V385.471c0,16.721,5.342,28.778,18.74,28.778,10.717,0,16.737-6.02,20.079-12.057,2.7-6.02,5.375-12.718,9.377-12.718,4.02,0,5.359,3.358,5.359,11.4,0,14.719-22.758,54.231-61.608,54.231-28.115,0-36.137-22.774-41.5-36.154-2-5.359-4.018-9.378-7.376-9.378-5.342,0-16.059,12.718-32.8,24.775-15.4,12.041-36.153,22.758-62.947,22.758-31.457,0-56.232-21.418-56.232-60.251,0-35.493,24.775-59.59,79.007-93.064,21.417-14.058,37.493-23.436,49.534-31.474,18.094-10.717,22.773-16.737,22.773-32.135Zm-91.063,183.45c0,24.775,14.075,37.494,33.492,37.494,14.735,0,28.778-8.7,41.513-21.418,12.04-12.057,16.058-21.435,16.058-38.172v-68.29c0-8.038-1.339-10.039-4.68-10.039-3.357,0-6.7,1.339-15.414,6.7a257.035,257.035,0,0,0-38.816,31.457c-18.757,17.415-32.153,37.494-32.153,61.607Z" transform="translate(-76.544 22.28)" fill="#28282a"></path>
                                        <path d="M589.831,220.759c0-22.758-2.68-25.437-19.417-27.455-12.041-1.34-16.06-2-16.06-7.36,0-6.7,6.7-8.038,20.74-12.718,24.114-8.7,42.853-19.417,52.908-27.455,6.02-4.68,9.362-7.36,12.719-7.36,4,0,5.358,5.359,5.358,11.379v26.776c0,9.378.679,11.379,2.68,11.379,6.02,0,16.721-11.379,31.457-22.758,15.415-11.379,36.154-23.436,60.947-23.436,22.756,0,44.158,7.376,59.573,23.436,14.057,14.736,22.1,36.154,22.1,64.27V400.19c0,23.435,6.681,30.8,22.1,32.813,12.039,1.339,17.415,3.341,17.415,10.039,0,6.02-4.713,8.038-12.073,8.038-8.022,0-25.438-2.679-56.894-2.679-30.135,0-40.852,2.679-51.552,2.679-7.376,0-10.717-2.017-10.717-8.7,0-4.7,4.681-7.377,11.378-8.716,16.739-3.341,22.775-8.7,22.775-27.454V236.157c0-16.06-3.357-30.134-11.4-40.835-9.361-12.057-23.436-18.755-40.172-18.755a70.658,70.658,0,0,0-46.872,18.094C654.78,206.023,648.1,219.42,648.1,235.5V406.211c0,17.415,3.34,24.114,19.4,27.454,15.4,2.679,19.417,2.679,19.417,8.716,0,6.682-4.681,8.7-10.039,8.7-8.038,0-19.417-2.679-58.927-2.679-34.137,0-42.159,2.679-52.891,2.679-8.022,0-12.7-2.679-12.7-8.7,0-6.037,5.342-9.378,12.04-10.056,22.1-2,25.438-10.7,25.438-37.477Z" transform="translate(180.734 22.28)" fill="#28282a"></path>
                                        <path d="M812.033,546.486c0,18.077,1.339,24.1,6.7,24.1,14.736,0,19.417-28.116,26.777-28.116,4.68,0,6.02,4.681,6.02,13.38,0,14.736-1.34,22.1-10.7,26.793-5.36,3.341-18.757,7.36-28.117,11.379-16.076,6.02-34.154,13.4-41.513,13.4-6.02,0-8.037-5.359-9.377-13.4-2-15.4-2.679-22.758-6.7-22.758s-10.7,8.7-22.1,18.061c-12.04,9.377-28.795,18.755-52.229,18.755-69.629,0-108.447-64.948-108.447-155.317,0-89.724,53.554-163.371,119.842-163.371a96.112,96.112,0,0,1,46.193,12.057c6.037,3.341,10.039,6.682,12.056,6.682,3.341,0,4-2.679,4-6.02V196.985c0-16.059-4.68-19.417-20.756-22.1-11.362-2-15.382-2.663-15.382-8.7,0-6.02,3.341-7.36,14.042-10.039,25.453-8.038,44.192-14.736,58.267-20.756,9.361-4.019,13.38-6.7,17.415-6.7,3.341,0,4,3.341,4,12.057ZM634.6,442.042c0,85.027,23.436,131.22,69.628,131.22,12.736,0,26.777-3.341,36.833-12.057,8.037-6.7,13.38-15.381,13.38-30.117V373.075c0-18.077-4-33.475-12.7-44.192a47.7,47.7,0,0,0-37.511-17.4c-30.795,0-69.628,34.153-69.628,129.88Z" transform="translate(491.45 -128.696)" fill="#28282a"></path>
                                        <path d="M743.5,201.342c0-31.473-7.36-44.192-28.116-44.192-32.135,0-46.87,24.1-57.588,56.91-4.681,14.058-12.719,25.437-22.757,32.135-7.377,5.359-16.738,9.378-26.793,9.378-12.7,0-17.4-5.359-17.4-17.416,0-38.817,57.572-99.746,140.614-99.746,24.758,0,44.175,3.341,55.554,13.4,11.379,8.7,14.075,21.418,14.075,42.174V385.471c0,16.721,5.342,28.778,18.722,28.778,10.734,0,16.754-6.02,20.094-12.057,2.68-6.02,5.36-12.718,9.378-12.718s5.359,3.358,5.359,11.4c0,14.719-22.757,54.231-61.607,54.231-28.116,0-36.138-22.774-41.513-36.154-2-5.359-4.019-9.378-7.36-9.378-5.342,0-16.076,12.718-32.8,24.775-15.4,12.041-36.155,22.758-62.948,22.758-31.456,0-56.232-21.418-56.232-60.251,0-35.493,24.775-59.59,79.006-93.064,21.418-14.058,37.495-23.436,49.534-31.474,18.094-10.717,22.774-16.737,22.774-32.135ZM652.44,384.793c0,24.775,14.074,37.494,33.491,37.494,14.72,0,28.777-8.7,41.5-21.418C739.484,388.812,743.5,379.434,743.5,362.7v-68.29c0-8.038-1.339-10.039-4.68-10.039-3.358,0-6.7,1.339-15.415,6.7a257.024,257.024,0,0,0-38.817,31.457c-18.755,17.415-32.151,37.494-32.151,61.607Z" transform="translate(778.891 22.28)" fill="#28282a"></path>
                                        <path d="M645.8,226.78c0-25.437-6.02-30.8-24.1-31.457-7.361-.661-10.7-1.34-10.7-6.7,0-7.376,4.681-9.377,15.383-12.057,14.074-4.68,33.491-12.04,49.55-25.437,8.038-8.038,12.057-12.718,17.415-12.718,4,0,6.021,3.341,6.021,10.717.661,8.7.661,20.078.661,32.119,0,9.377,0,16.076,2.7,16.076,5.342,0,10.04-14.736,20.062-28.794,10.055-14.058,24.775-29.456,48.211-29.456,25.437,0,41.512,19.417,41.512,48.211,0,24.1-10.7,42.174-32.135,42.174-17.4,0-23.419-11.379-26.1-24.1-2.679-10.7-4.7-21.418-12.736-21.418-12.7,0-21.417,13.38-28.115,28.116-7.36,16.059-9.362,32.135-9.362,45.532V389.473c0,30.134,2,40.173,25.438,42.852,16.059,2.679,24.1,4.019,24.1,10.717s-4.7,8.038-16.076,8.038c-9.36,0-21.417-2.679-62.269-2.679-33.458,0-44.853,2.679-54.215,2.679-8.038,0-13.4-2.017-13.4-8.038,0-7.36,6.038-8.7,16.738-10.717,18.755-2,21.418-7.36,21.418-36.815Z" transform="translate(1039.928 22.28)" fill="#28282a"></path>
                                        <path d="M860.443,546.486c0,18.077,1.341,24.1,6.7,24.1,14.736,0,19.417-28.116,26.777-28.116,4.7,0,6.037,4.681,6.037,13.38,0,14.736-1.34,22.1-10.718,26.793-5.358,3.341-18.754,7.36-28.116,11.379-16.076,6.02-34.152,13.4-41.513,13.4-6.02,0-8.037-5.359-9.377-13.4-2-15.4-2.679-22.758-6.7-22.758s-10.7,8.7-22.079,18.061c-12.057,9.377-28.811,18.755-52.247,18.755-69.628,0-108.445-64.948-108.445-155.317,0-89.724,53.552-163.371,119.84-163.371A96.06,96.06,0,0,1,786.8,301.445c6.037,3.341,10.04,6.682,12.057,6.682,3.34,0,4-2.679,4-6.02V196.985c0-16.059-4.679-19.417-20.739-22.1-11.379-2-15.4-2.663-15.4-8.7,0-6.02,3.341-7.36,14.058-10.039,25.454-8.038,44.175-14.736,58.251-20.756,9.36-4.019,13.4-6.7,17.416-6.7,3.34,0,4,3.341,4,12.057ZM683.013,442.042c0,85.027,23.436,131.22,69.63,131.22,12.734,0,26.776-3.341,36.832-12.057,8.037-6.7,13.379-15.381,13.379-30.117V373.075c0-18.077-4-33.475-12.7-44.192a47.672,47.672,0,0,0-37.51-17.4c-30.8,0-69.63,34.153-69.63,129.88Z" transform="translate(1243.722 -128.696)" fill="#28282a"></path>
                                    </g>
                                </g>
                            </g>
                        </svg>